<mxfile host="app.diagrams.net" modified="2024-04-30T13:08:26.552Z" agent="Mozilla/5.0 (Windows NT 10.0; Win64; x64) AppleWebKit/537.36 (KHTML, like Gecko) Chrome/124.0.0.0 Safari/537.36" etag="1kIUKPxv433POLkQimmh" version="24.3.1" type="google">
  <diagram id="C5RBs43oDa-KdzZeNtuy" name="Page-1">
    <mxGraphModel grid="1" page="1" gridSize="10" guides="1" tooltips="1" connect="1" arrows="1" fold="1" pageScale="1" pageWidth="827" pageHeight="1169" math="0" shadow="0">
      <root>
        <mxCell id="WIyWlLk6GJQsqaUBKTNV-0" />
        <mxCell id="WIyWlLk6GJQsqaUBKTNV-1" parent="WIyWlLk6GJQsqaUBKTNV-0" />
        <mxCell id="WIyWlLk6GJQsqaUBKTNV-2" value="" style="rounded=0;html=1;jettySize=auto;orthogonalLoop=1;fontSize=16;endArrow=block;endFill=0;endSize=8;strokeWidth=2;shadow=0;labelBackgroundColor=none;edgeStyle=orthogonalEdgeStyle;" edge="1" parent="WIyWlLk6GJQsqaUBKTNV-1" source="WIyWlLk6GJQsqaUBKTNV-3" target="WIyWlLk6GJQsqaUBKTNV-6">
          <mxGeometry relative="1" as="geometry" />
        </mxCell>
        <mxCell id="WIyWlLk6GJQsqaUBKTNV-3" value="User" style="rounded=1;whiteSpace=wrap;html=1;fontSize=16;glass=0;strokeWidth=2;shadow=0;" vertex="1" parent="WIyWlLk6GJQsqaUBKTNV-1">
          <mxGeometry x="359" y="70" width="120" height="40" as="geometry" />
        </mxCell>
        <mxCell id="WIyWlLk6GJQsqaUBKTNV-4" value="Yes" style="rounded=0;html=1;jettySize=auto;orthogonalLoop=1;fontSize=16;endArrow=block;endFill=0;endSize=8;strokeWidth=2;shadow=0;labelBackgroundColor=none;edgeStyle=orthogonalEdgeStyle;exitX=0.5;exitY=1;exitDx=0;exitDy=0;entryX=0.527;entryY=-0.051;entryDx=0;entryDy=0;entryPerimeter=0;" edge="1" parent="WIyWlLk6GJQsqaUBKTNV-1" source="WIyWlLk6GJQsqaUBKTNV-6" target="OzxSRj_L68yM5x1F0NcO-6">
          <mxGeometry y="20" relative="1" as="geometry">
            <mxPoint as="offset" />
            <mxPoint x="419" y="330" as="targetPoint" />
          </mxGeometry>
        </mxCell>
        <mxCell id="WIyWlLk6GJQsqaUBKTNV-5" value="No" style="edgeStyle=orthogonalEdgeStyle;rounded=0;html=1;jettySize=auto;orthogonalLoop=1;fontSize=16;endArrow=block;endFill=0;endSize=8;strokeWidth=2;shadow=0;labelBackgroundColor=none;" edge="1" parent="WIyWlLk6GJQsqaUBKTNV-1" source="WIyWlLk6GJQsqaUBKTNV-6" target="WIyWlLk6GJQsqaUBKTNV-7">
          <mxGeometry y="10" relative="1" as="geometry">
            <mxPoint as="offset" />
          </mxGeometry>
        </mxCell>
        <mxCell id="WIyWlLk6GJQsqaUBKTNV-6" value="Register/Login" style="rhombus;whiteSpace=wrap;html=1;shadow=0;fontFamily=Helvetica;fontSize=16;align=center;strokeWidth=2;spacing=6;spacingTop=-4;" vertex="1" parent="WIyWlLk6GJQsqaUBKTNV-1">
          <mxGeometry x="354" y="190" width="130" height="110" as="geometry" />
        </mxCell>
        <mxCell id="WIyWlLk6GJQsqaUBKTNV-7" value="Home for Guest" style="rounded=1;whiteSpace=wrap;html=1;fontSize=12;glass=0;strokeWidth=2;shadow=0;" vertex="1" parent="WIyWlLk6GJQsqaUBKTNV-1">
          <mxGeometry x="580" y="225" width="120" height="40" as="geometry" />
        </mxCell>
        <mxCell id="WIyWlLk6GJQsqaUBKTNV-11" value="Logout" style="rounded=1;whiteSpace=wrap;html=1;fontSize=16;glass=0;strokeWidth=2;shadow=0;" vertex="1" parent="WIyWlLk6GJQsqaUBKTNV-1">
          <mxGeometry x="349" y="1090" width="120" height="40" as="geometry" />
        </mxCell>
        <mxCell id="B6_iIE4QEPSGx3Srziaw-4" value="" style="edgeStyle=orthogonalEdgeStyle;rounded=0;orthogonalLoop=1;jettySize=auto;html=1;fontSize=16;strokeWidth=2;entryX=0.539;entryY=-0.014;entryDx=0;entryDy=0;entryPerimeter=0;exitX=0.524;exitY=1.01;exitDx=0;exitDy=0;exitPerimeter=0;" edge="1" parent="WIyWlLk6GJQsqaUBKTNV-1" source="OzxSRj_L68yM5x1F0NcO-6" target="B6_iIE4QEPSGx3Srziaw-9">
          <mxGeometry relative="1" as="geometry">
            <mxPoint x="419" y="410" as="sourcePoint" />
            <mxPoint x="419" y="450" as="targetPoint" />
          </mxGeometry>
        </mxCell>
        <mxCell id="B6_iIE4QEPSGx3Srziaw-5" value="Checkout Book" style="ellipse;whiteSpace=wrap;html=1;fontSize=16;strokeWidth=2;" vertex="1" parent="WIyWlLk6GJQsqaUBKTNV-1">
          <mxGeometry x="179" y="706.81" width="90" height="50" as="geometry" />
        </mxCell>
        <mxCell id="B6_iIE4QEPSGx3Srziaw-6" value="Reserve Book" style="ellipse;whiteSpace=wrap;html=1;fontSize=16;strokeWidth=2;" vertex="1" parent="WIyWlLk6GJQsqaUBKTNV-1">
          <mxGeometry x="304" y="706.81" width="90" height="50" as="geometry" />
        </mxCell>
        <mxCell id="B6_iIE4QEPSGx3Srziaw-7" value="Renew" style="ellipse;whiteSpace=wrap;html=1;fontSize=16;strokeWidth=2;" vertex="1" parent="WIyWlLk6GJQsqaUBKTNV-1">
          <mxGeometry x="439" y="706.81" width="90" height="50" as="geometry" />
        </mxCell>
        <mxCell id="B6_iIE4QEPSGx3Srziaw-8" value="Return Book" style="ellipse;whiteSpace=wrap;html=1;strokeWidth=2;" vertex="1" parent="WIyWlLk6GJQsqaUBKTNV-1">
          <mxGeometry x="559" y="706.81" width="90" height="50" as="geometry" />
        </mxCell>
        <mxCell id="B6_iIE4QEPSGx3Srziaw-9" value="Search for Book and&lt;div style=&quot;font-size: 16px;&quot;&gt;Select a Book&lt;/div&gt;" style="ellipse;whiteSpace=wrap;html=1;fontSize=16;strokeWidth=2;" vertex="1" parent="WIyWlLk6GJQsqaUBKTNV-1">
          <mxGeometry x="350" y="510" width="126.5" height="110" as="geometry" />
        </mxCell>
        <mxCell id="B6_iIE4QEPSGx3Srziaw-10" value="" style="endArrow=classic;html=1;rounded=0;exitX=0.028;exitY=0.674;exitDx=0;exitDy=0;exitPerimeter=0;entryX=0.662;entryY=0.04;entryDx=0;entryDy=0;entryPerimeter=0;fontSize=16;strokeWidth=2;" edge="1" parent="WIyWlLk6GJQsqaUBKTNV-1" source="B6_iIE4QEPSGx3Srziaw-9" target="B6_iIE4QEPSGx3Srziaw-5">
          <mxGeometry width="50" height="50" relative="1" as="geometry">
            <mxPoint x="429" y="490" as="sourcePoint" />
            <mxPoint x="479" y="440" as="targetPoint" />
          </mxGeometry>
        </mxCell>
        <mxCell id="B6_iIE4QEPSGx3Srziaw-11" value="" style="endArrow=classic;html=1;rounded=0;exitX=0.192;exitY=0.901;exitDx=0;exitDy=0;exitPerimeter=0;entryX=0.5;entryY=0;entryDx=0;entryDy=0;fontSize=16;strokeWidth=2;" edge="1" parent="WIyWlLk6GJQsqaUBKTNV-1" source="B6_iIE4QEPSGx3Srziaw-9" target="B6_iIE4QEPSGx3Srziaw-6">
          <mxGeometry width="50" height="50" relative="1" as="geometry">
            <mxPoint x="382" y="507" as="sourcePoint" />
            <mxPoint x="219" y="602" as="targetPoint" />
          </mxGeometry>
        </mxCell>
        <mxCell id="B6_iIE4QEPSGx3Srziaw-12" value="" style="endArrow=classic;html=1;rounded=0;exitX=0.634;exitY=0.974;exitDx=0;exitDy=0;exitPerimeter=0;entryX=0.382;entryY=0.04;entryDx=0;entryDy=0;entryPerimeter=0;fontSize=16;strokeWidth=2;" edge="1" parent="WIyWlLk6GJQsqaUBKTNV-1" source="B6_iIE4QEPSGx3Srziaw-9" target="B6_iIE4QEPSGx3Srziaw-7">
          <mxGeometry width="50" height="50" relative="1" as="geometry">
            <mxPoint x="442.7819999999999" y="680" as="sourcePoint" />
            <mxPoint x="359" y="716.81" as="targetPoint" />
          </mxGeometry>
        </mxCell>
        <mxCell id="B6_iIE4QEPSGx3Srziaw-13" value="" style="endArrow=classic;html=1;rounded=0;exitX=0.986;exitY=0.695;exitDx=0;exitDy=0;exitPerimeter=0;entryX=0.373;entryY=0.016;entryDx=0;entryDy=0;entryPerimeter=0;fontSize=16;strokeWidth=2;" edge="1" parent="WIyWlLk6GJQsqaUBKTNV-1" source="B6_iIE4QEPSGx3Srziaw-9" target="B6_iIE4QEPSGx3Srziaw-8">
          <mxGeometry width="50" height="50" relative="1" as="geometry">
            <mxPoint x="448" y="532" as="sourcePoint" />
            <mxPoint x="483" y="602" as="targetPoint" />
          </mxGeometry>
        </mxCell>
        <mxCell id="B6_iIE4QEPSGx3Srziaw-14" value="" style="endArrow=classic;html=1;rounded=0;exitX=0.5;exitY=1;exitDx=0;exitDy=0;fontSize=16;strokeWidth=2;" edge="1" parent="WIyWlLk6GJQsqaUBKTNV-1" source="B6_iIE4QEPSGx3Srziaw-6">
          <mxGeometry width="50" height="50" relative="1" as="geometry">
            <mxPoint x="448" y="648.81" as="sourcePoint" />
            <mxPoint x="379" y="846.81" as="targetPoint" />
          </mxGeometry>
        </mxCell>
        <mxCell id="B6_iIE4QEPSGx3Srziaw-15" value="" style="endArrow=classic;html=1;rounded=0;exitX=0.5;exitY=1;exitDx=0;exitDy=0;fontSize=16;strokeWidth=2;" edge="1" parent="WIyWlLk6GJQsqaUBKTNV-1" source="B6_iIE4QEPSGx3Srziaw-7">
          <mxGeometry width="50" height="50" relative="1" as="geometry">
            <mxPoint x="359" y="766.81" as="sourcePoint" />
            <mxPoint x="439" y="846.81" as="targetPoint" />
          </mxGeometry>
        </mxCell>
        <mxCell id="B6_iIE4QEPSGx3Srziaw-16" value="" style="endArrow=classic;html=1;rounded=0;exitX=0.267;exitY=0.984;exitDx=0;exitDy=0;exitPerimeter=0;fontSize=16;strokeWidth=2;" edge="1" parent="WIyWlLk6GJQsqaUBKTNV-1" source="B6_iIE4QEPSGx3Srziaw-8">
          <mxGeometry width="50" height="50" relative="1" as="geometry">
            <mxPoint x="494" y="766.81" as="sourcePoint" />
            <mxPoint x="479" y="846.81" as="targetPoint" />
          </mxGeometry>
        </mxCell>
        <mxCell id="B6_iIE4QEPSGx3Srziaw-17" value="" style="endArrow=classic;html=1;rounded=0;exitX=0.609;exitY=1.008;exitDx=0;exitDy=0;exitPerimeter=0;entryX=0;entryY=0;entryDx=0;entryDy=0;fontSize=16;strokeWidth=2;" edge="1" parent="WIyWlLk6GJQsqaUBKTNV-1" source="B6_iIE4QEPSGx3Srziaw-5" target="B6_iIE4QEPSGx3Srziaw-19">
          <mxGeometry width="50" height="50" relative="1" as="geometry">
            <mxPoint x="359" y="766.81" as="sourcePoint" />
            <mxPoint x="289" y="846.81" as="targetPoint" />
          </mxGeometry>
        </mxCell>
        <mxCell id="B6_iIE4QEPSGx3Srziaw-18" value="" style="endArrow=none;html=1;rounded=0;fontSize=16;strokeWidth=2;" edge="1" parent="WIyWlLk6GJQsqaUBKTNV-1">
          <mxGeometry width="50" height="50" relative="1" as="geometry">
            <mxPoint x="299" y="846.81" as="sourcePoint" />
            <mxPoint x="529" y="846.81" as="targetPoint" />
          </mxGeometry>
        </mxCell>
        <mxCell id="B6_iIE4QEPSGx3Srziaw-19" value="Completion page" style="rounded=1;whiteSpace=wrap;html=1;fontSize=16;strokeWidth=2;" vertex="1" parent="WIyWlLk6GJQsqaUBKTNV-1">
          <mxGeometry x="349" y="846.81" width="120" height="60" as="geometry" />
        </mxCell>
        <mxCell id="OzxSRj_L68yM5x1F0NcO-2" value="Home page" style="rounded=1;whiteSpace=wrap;html=1;fontSize=16;strokeWidth=2;" vertex="1" parent="WIyWlLk6GJQsqaUBKTNV-1">
          <mxGeometry x="349" y="960" width="120" height="60" as="geometry" />
        </mxCell>
        <mxCell id="OzxSRj_L68yM5x1F0NcO-4" value="" style="endArrow=classic;html=1;rounded=0;exitX=0.5;exitY=1;exitDx=0;exitDy=0;entryX=0.5;entryY=0;entryDx=0;entryDy=0;" edge="1" parent="WIyWlLk6GJQsqaUBKTNV-1" source="OzxSRj_L68yM5x1F0NcO-2" target="WIyWlLk6GJQsqaUBKTNV-11">
          <mxGeometry width="50" height="50" relative="1" as="geometry">
            <mxPoint x="340" y="1010" as="sourcePoint" />
            <mxPoint x="390" y="960" as="targetPoint" />
          </mxGeometry>
        </mxCell>
        <mxCell id="OzxSRj_L68yM5x1F0NcO-5" value="" style="endArrow=classic;html=1;rounded=0;exitX=0.5;exitY=1;exitDx=0;exitDy=0;entryX=0.5;entryY=0;entryDx=0;entryDy=0;" edge="1" parent="WIyWlLk6GJQsqaUBKTNV-1" source="B6_iIE4QEPSGx3Srziaw-19" target="OzxSRj_L68yM5x1F0NcO-2">
          <mxGeometry width="50" height="50" relative="1" as="geometry">
            <mxPoint x="340" y="1010" as="sourcePoint" />
            <mxPoint x="390" y="960" as="targetPoint" />
          </mxGeometry>
        </mxCell>
        <mxCell id="OzxSRj_L68yM5x1F0NcO-6" value="Home page" style="rounded=1;whiteSpace=wrap;html=1;fontSize=16;strokeWidth=2;" vertex="1" parent="WIyWlLk6GJQsqaUBKTNV-1">
          <mxGeometry x="355.75" y="340" width="120" height="60" as="geometry" />
        </mxCell>
      </root>
    </mxGraphModel>
  </diagram>
</mxfile>
